<svg width="20" height="19" viewBox="0 0 20 19" fill="none" xmlns="http://www.w3.org/2000/svg">
<path d="M3.43 14.0648C3.0107 14.0648 2.60082 14.1892 2.25219 14.4221C1.90356 14.6551 1.63183 14.9862 1.47137 15.3735C1.31092 15.7609 1.26893 16.1872 1.35073 16.5984C1.43253 17.0097 1.63444 17.3874 1.93093 17.6839C2.22742 17.9804 2.60517 18.1823 3.01641 18.2641C3.42765 18.3459 3.85391 18.3039 4.24129 18.1434C4.62867 17.983 4.95977 17.7113 5.19271 17.3626C5.42566 17.014 5.55 16.6041 5.55 16.1848C5.55 15.9064 5.49516 15.6307 5.38862 15.3735C5.28208 15.1163 5.12593 14.8826 4.92907 14.6858C4.73221 14.4889 4.4985 14.3327 4.24129 14.2262C3.98408 14.1197 3.7084 14.0648 3.43 14.0648V14.0648Z" fill="#D2D2D2"/>
<path d="M14.34 18.3048C15.5108 18.3048 16.46 17.3557 16.46 16.1848C16.46 15.014 15.5108 14.0648 14.34 14.0648C13.1692 14.0648 12.22 15.014 12.22 16.1848C12.22 17.3557 13.1692 18.3048 14.34 18.3048Z" fill="#D2D2D2"/>
<path d="M19.69 0.504785C19.5322 0.259493 19.2834 0.0869305 18.9983 0.0250463C18.7133 -0.036838 18.4153 0.0170232 18.17 0.174785L15.9 1.65478C15.5373 1.32005 15.0635 1.13128 14.57 1.12478H1.94C1.42548 1.12478 0.932034 1.32918 0.568213 1.693C0.204393 2.05682 0 2.55026 0 3.06478V11.2948C0 11.8093 0.204393 12.3028 0.568213 12.6666C0.932034 13.0304 1.42548 13.2348 1.94 13.2348H13.56C14.0353 13.2357 14.4944 13.0621 14.8502 12.7468C15.206 12.4316 15.4336 11.9968 15.49 11.5248L16.43 3.91478L19.37 2.02478C19.6137 1.86536 19.7842 1.61584 19.8441 1.33092C19.9041 1.04599 19.8487 0.748909 19.69 0.504785V0.504785ZM13.34 11.0148H2.2V3.30478H14.28L13.34 11.0148Z" fill="#D2D2D2"/>
</svg>
