<svg width="45" height="45" viewBox="0 0 45 45" fill="none" xmlns="http://www.w3.org/2000/svg">
<g style="mix-blend-mode:multiply" opacity="0.65">
<path d="M33.49 0H11.51C5.1532 0 0 5.1532 0 11.51V33.49C0 39.8468 5.1532 45 11.51 45H33.49C39.8468 45 45 39.8468 45 33.49V11.51C45 5.1532 39.8468 0 33.49 0Z" fill="black"/>
</g>
<path d="M32.11 31.0001C31.0593 28.1488 29.1387 25.7001 26.62 24.0001C27.631 23.1541 28.3571 22.0174 28.6996 20.7444C29.042 19.4715 28.9844 18.1239 28.5343 16.8848C28.0843 15.6458 27.2638 14.5753 26.1842 13.8188C25.1046 13.0623 23.8183 12.6565 22.5 12.6565C21.1818 12.6565 19.8955 13.0623 18.8159 13.8188C17.7363 14.5753 16.9157 15.6458 16.4657 16.8848C16.0157 18.1239 15.958 19.4715 16.3005 20.7444C16.643 22.0174 17.369 23.1541 18.38 24.0001C15.8613 25.7001 13.9408 28.1488 12.89 31.0001C12.8428 31.136 12.823 31.2799 12.8317 31.4235C12.8403 31.567 12.8774 31.7075 12.9406 31.8367C13.0038 31.9659 13.0919 32.0813 13.2 32.1763C13.308 32.2713 13.4338 32.344 13.57 32.3901C13.686 32.4295 13.8076 32.4498 13.93 32.4501C14.1515 32.4408 14.3652 32.3653 14.5434 32.2334C14.7217 32.1015 14.8563 31.9192 14.93 31.7101C14.93 31.6601 16.62 26.8601 20.73 25.2301C21.8612 25.5499 23.0588 25.5499 24.19 25.2301C28.3 26.8101 30 31.5801 30 31.6701C30.0737 31.8792 30.2084 32.0615 30.3866 32.1934C30.5648 32.3253 30.7785 32.4007 31 32.4101C31.1225 32.4097 31.2441 32.3895 31.36 32.3501C31.498 32.3109 31.627 32.2449 31.7394 32.1558C31.8519 32.0667 31.9457 31.9563 32.0153 31.8308C32.085 31.7054 32.1293 31.5675 32.1455 31.4249C32.1617 31.2824 32.1497 31.138 32.11 31.0001ZM18.28 19.0001C18.28 18.1655 18.5275 17.3496 18.9912 16.6556C19.4549 15.9616 20.114 15.4207 20.8851 15.1013C21.6562 14.7819 22.5047 14.6984 23.3233 14.8612C24.1419 15.024 24.8938 15.4259 25.484 16.0161C26.0742 16.6063 26.4761 17.3582 26.6389 18.1768C26.8018 18.9954 26.7182 19.8439 26.3988 20.615C26.0794 21.3861 25.5385 22.0452 24.8445 22.5089C24.1505 22.9726 23.3347 23.2201 22.5 23.2201C21.3808 23.2201 20.3074 22.7755 19.516 21.9841C18.7246 21.1927 18.28 20.1193 18.28 19.0001Z" fill="white"/>
</svg>
