<svg width="20" height="20" viewBox="0 0 20 20" fill="none" xmlns="http://www.w3.org/2000/svg">
<path d="M3.31416 8.20002C3.34768 7.78236 3.53729 7.39264 3.84522 7.10849C4.15315 6.82434 4.55682 6.6666 4.97582 6.66669H15.0242C15.4432 6.6666 15.8468 6.82434 16.1548 7.10849C16.4627 7.39264 16.6523 7.78236 16.6858 8.20002L17.355 16.5334C17.3734 16.7627 17.3441 16.9933 17.269 17.2108C17.1939 17.4283 17.0746 17.6278 16.9186 17.7969C16.7626 17.966 16.5732 18.1009 16.3625 18.1933C16.1518 18.2856 15.9242 18.3333 15.6942 18.3334H4.30582C4.07576 18.3333 3.8482 18.2856 3.63747 18.1933C3.42675 18.1009 3.23742 17.966 3.0814 17.7969C2.92539 17.6278 2.80607 17.4283 2.73097 17.2108C2.65586 16.9933 2.62659 16.7627 2.64499 16.5334L3.31416 8.20002V8.20002Z" stroke="#D2D2D2" stroke-width="1.8" stroke-linecap="round" stroke-linejoin="round"/>
<path d="M13.3333 9.16669V5.00002C13.3333 4.11597 12.9821 3.26812 12.357 2.643C11.7319 2.01788 10.884 1.66669 9.99996 1.66669C9.1159 1.66669 8.26806 2.01788 7.64294 2.643C7.01782 3.26812 6.66663 4.11597 6.66663 5.00002V9.16669" stroke="#D2D2D2" stroke-width="1.8" stroke-linecap="round" stroke-linejoin="round"/>
</svg>
