<svg width="45" height="45" viewBox="0 0 45 45" fill="none" xmlns="http://www.w3.org/2000/svg">
<g style="mix-blend-mode:multiply" opacity="0.65">
<path d="M33.49 0H11.51C5.1532 0 0 5.1532 0 11.51V33.49C0 39.8468 5.1532 45 11.51 45H33.49C39.8468 45 45 39.8468 45 33.49V11.51C45 5.1532 39.8468 0 33.49 0Z" fill="black"/>
</g>
<path d="M16.3142 20.2001C16.3477 19.7824 16.5373 19.3927 16.8452 19.1086C17.1532 18.8244 17.5568 18.6667 17.9758 18.6667H28.0242C28.4432 18.6667 28.8468 18.8244 29.1548 19.1086C29.4627 19.3927 29.6523 19.7824 29.6858 20.2001L30.355 28.5334C30.3734 28.7627 30.3441 28.9934 30.269 29.2109C30.1939 29.4283 30.0746 29.6279 29.9186 29.797C29.7626 29.966 29.5732 30.101 29.3625 30.1933C29.1518 30.2856 28.9242 30.3333 28.6942 30.3334H17.3058C17.0758 30.3333 16.8482 30.2856 16.6375 30.1933C16.4268 30.101 16.2374 29.966 16.0814 29.797C15.9254 29.6279 15.8061 29.4283 15.731 29.2109C15.6559 28.9934 15.6266 28.7627 15.645 28.5334L16.3142 20.2001V20.2001Z" stroke="white" stroke-width="1.8" stroke-linecap="round" stroke-linejoin="round"/>
<path d="M26.3333 21.1667V17.0001C26.3333 16.116 25.9821 15.2682 25.357 14.6431C24.7319 14.0179 23.8841 13.6667 23 13.6667C22.1159 13.6667 21.2681 14.0179 20.643 14.6431C20.0179 15.2682 19.6667 16.116 19.6667 17.0001V21.1667" stroke="white" stroke-width="1.8" stroke-linecap="round" stroke-linejoin="round"/>
</svg>
