<svg width="32" height="32" viewBox="0 0 32 32" fill="none" xmlns="http://www.w3.org/2000/svg">
<circle cx="16" cy="16" r="16" fill="#3D3D3D"/>
<path d="M16.0004 10.3854C15.0292 9.49448 13.758 9.00004 12.4386 9C11.7403 9.00073 11.049 9.13921 10.4046 9.40749C9.76012 9.67576 9.1752 10.0685 8.68349 10.5632C6.58621 12.6643 6.5871 15.9508 8.68527 18.043L15.2205 24.5625C15.372 24.8284 15.6643 25 16.0004 25C16.1383 24.9987 16.2741 24.9651 16.3967 24.9019C16.5193 24.8387 16.6253 24.7478 16.7063 24.6363L23.3155 18.043C25.4136 15.9499 25.4136 12.6643 23.3137 10.5596C22.8222 10.0659 22.2378 9.67391 21.5939 9.40625C20.9501 9.1386 20.2596 9.00053 19.5621 9C18.2428 9.00022 16.9716 9.49463 16.0004 10.3854V10.3854ZM22.0533 11.8169C23.4465 13.2138 23.4474 15.3959 22.0551 16.7857L16.0004 22.8259L9.9456 16.7857C8.55336 15.3959 8.55425 13.2138 9.94382 11.8205C10.6212 11.1483 11.5072 10.7784 12.4386 10.7784C13.3701 10.7784 14.2525 11.1483 14.9245 11.8187L15.3702 12.2633C15.4529 12.346 15.5511 12.4115 15.6593 12.4563C15.7674 12.501 15.8833 12.524 16.0004 12.524C16.1174 12.524 16.2333 12.501 16.3415 12.4563C16.4496 12.4115 16.5478 12.346 16.6305 12.2633L17.0762 11.8187C18.4239 10.4769 20.7074 10.4805 22.0533 11.8169V11.8169Z" fill="white"/>
<path d="M16 23.6667L8 15.2222V12.5556L10.6667 9.88892L13.7778 10.3334L16 11.2222L18.6667 10.3334L21.7778 10.7778L24 14.7778L16 23.6667Z" fill="white" stroke="white"/>
</svg>
