<svg width="72" height="72" viewBox="0 0 72 72" fill="none" xmlns="http://www.w3.org/2000/svg">
<circle cx="36" cy="36" r="34.5" fill="white" stroke="#FE0106" stroke-width="3"/>
<path d="M22.9318 56V15.2727H37.1705C40.0076 15.2727 42.3475 15.7633 44.1903 16.7443C46.0331 17.7121 47.4053 19.018 48.3068 20.6619C49.2083 22.2926 49.6591 24.1023 49.6591 26.0909C49.6591 27.8409 49.3475 29.286 48.7244 30.4261C48.1146 31.5663 47.3059 32.4678 46.2983 33.1307C45.304 33.7936 44.2235 34.2841 43.0568 34.6023V35C44.303 35.0795 45.5559 35.517 46.8153 36.3125C48.0748 37.108 49.1288 38.2481 49.9773 39.733C50.8258 41.2178 51.25 43.0341 51.25 45.1818C51.25 47.2235 50.786 49.0597 49.858 50.6903C48.9299 52.321 47.465 53.6136 45.4631 54.5682C43.4612 55.5227 40.8561 56 37.6477 56H22.9318ZM27.8636 51.625H37.6477C40.8693 51.625 43.1563 51.0019 44.5085 49.7557C45.8741 48.4962 46.5568 46.9716 46.5568 45.1818C46.5568 43.803 46.2055 42.5303 45.5028 41.3636C44.8002 40.1837 43.7992 39.2424 42.5 38.5398C41.2008 37.8239 39.6629 37.4659 37.8864 37.4659H27.8636V51.625ZM27.8636 33.1705H37.0114C38.4962 33.1705 39.8352 32.8788 41.0284 32.2955C42.2348 31.7121 43.1894 30.8902 43.892 29.8295C44.608 28.7689 44.9659 27.5227 44.9659 26.0909C44.9659 24.3011 44.3428 22.7831 43.0966 21.5369C41.8504 20.2775 39.875 19.6477 37.1705 19.6477H27.8636V33.1705Z" fill="#FE0106"/>
</svg>
