<svg width="45" height="45" viewBox="0 0 45 45" fill="none" xmlns="http://www.w3.org/2000/svg">
<g style="mix-blend-mode:multiply" opacity="0.65">
<path d="M33.49 0H11.51C5.1532 0 0 5.1532 0 11.51V33.49C0 39.8468 5.1532 45 11.51 45H33.49C39.8468 45 45 39.8468 45 33.49V11.51C45 5.1532 39.8468 0 33.49 0Z" fill="black"/>
</g>
<path d="M31.85 27.9999C30.7944 27.067 29.9516 25.918 29.3788 24.6309C28.806 23.3438 28.5165 21.9486 28.53 20.5399C28.53 17.0599 26.98 14.9899 24.1 14.4499C24.1054 14.3867 24.1054 14.3231 24.1 14.2599C24.1 13.8302 23.9293 13.4182 23.6255 13.1144C23.3217 12.8106 22.9097 12.6399 22.48 12.6399C22.0504 12.6399 21.6383 12.8106 21.3345 13.1144C21.0307 13.4182 20.86 13.8302 20.86 14.2599C20.8546 14.3231 20.8546 14.3867 20.86 14.4499C17.98 14.9899 16.43 17.0599 16.43 20.5399C16.4485 21.9456 16.1653 23.3389 15.5995 24.6258C15.0336 25.9127 14.1984 27.0633 13.15 27.9999C12.9918 28.1172 12.8608 28.2673 12.7659 28.4399C12.671 28.6125 12.6144 28.8035 12.6 28.9999C12.6182 29.3828 12.7872 29.7429 13.0702 30.0015C13.3532 30.2602 13.727 30.3962 14.11 30.3799H20.39C20.39 30.9395 20.6123 31.4762 21.008 31.8719C21.4037 32.2676 21.9404 32.4899 22.5 32.4899C23.0596 32.4899 23.5963 32.2676 23.992 31.8719C24.3877 31.4762 24.61 30.9395 24.61 30.3799H30.89C31.273 30.3962 31.6469 30.2602 31.9298 30.0015C32.2128 29.7429 32.3818 29.3828 32.4 28.9999C32.3856 28.8035 32.329 28.6125 32.2341 28.4399C32.1392 28.2673 32.0082 28.1172 31.85 27.9999ZM22.76 28.2399C22.6734 28.235 22.5866 28.235 22.5 28.2399C22.4134 28.235 22.3266 28.235 22.24 28.2399H16C17.7363 26.0497 18.6777 23.3349 18.67 20.5399C18.67 17.6699 19.78 16.5399 22.5 16.5399C25.22 16.5399 26.33 17.7099 26.33 20.5399C26.3336 23.3177 27.2743 26.0131 29 28.1899L22.76 28.2399Z" fill="white"/>
</svg>
