<svg width="20" height="20" viewBox="0 0 20 20" fill="none" xmlns="http://www.w3.org/2000/svg">
<g clip-path="url(#clip0_49_47)">
<path d="M19.5 17.8499L15.33 13.6799C16.6347 11.9572 17.2369 9.8034 17.0149 7.65376C16.7929 5.50411 15.7633 3.51886 14.134 2.0991C12.5048 0.679337 10.3973 -0.0690928 8.23752 0.00502253C6.07772 0.0791379 4.02656 0.970273 2.49844 2.49838C0.970334 4.02649 0.0791989 6.07766 0.00508357 8.23746C-0.0690318 10.3973 0.679398 12.5047 2.09916 14.134C3.51892 15.7632 5.50418 16.7929 7.65382 17.0149C9.80346 17.2369 11.9572 16.6347 13.68 15.3299L17.85 19.4999C18.0737 19.6925 18.362 19.7933 18.6569 19.7823C18.9519 19.7712 19.2318 19.6491 19.4405 19.4404C19.6492 19.2317 19.7713 18.9518 19.7823 18.6569C19.7934 18.3619 19.6925 18.0737 19.5 17.8499ZM13.66 11.9999C12.8261 13.2285 11.579 14.1171 10.1455 14.504C8.71189 14.8908 7.18708 14.7504 5.84831 14.1082C4.50953 13.4659 3.44571 12.3645 2.8503 11.0043C2.25488 9.64402 2.16741 8.11526 2.6038 6.69598C3.04019 5.2767 3.97145 4.06116 5.22823 3.27041C6.48502 2.47967 7.98386 2.16622 9.4522 2.38708C10.9205 2.60794 12.2608 3.34843 13.2294 4.47391C14.198 5.59938 14.7304 7.03508 14.73 8.51994C14.7315 9.76116 14.3586 10.974 13.66 11.9999V11.9999Z" fill="#DF1F2D"/>
</g>
<defs>
<clipPath id="clip0_49_47">
<rect width="19.84" height="19.84" fill="white"/>
</clipPath>
</defs>
</svg>
