<svg width="45" height="45" viewBox="0 0 45 45" fill="none" xmlns="http://www.w3.org/2000/svg">
<g style="mix-blend-mode:multiply" opacity="0.65">
<path d="M33.49 0H11.51C5.1532 0 0 5.1532 0 11.51V33.49C0 39.8468 5.1532 45 11.51 45H33.49C39.8468 45 45 39.8468 45 33.49V11.51C45 5.1532 39.8468 0 33.49 0Z" fill="black"/>
</g>
<path d="M16 27.41C15.5807 27.41 15.1708 27.5344 14.8222 27.7673C14.4736 28.0003 14.2018 28.3314 14.0414 28.7187C13.8809 29.1061 13.8389 29.5324 13.9207 29.9436C14.0025 30.3549 14.2044 30.7326 14.5009 31.0291C14.7974 31.3256 15.1752 31.5275 15.5864 31.6093C15.9976 31.6911 16.4239 31.6491 16.8113 31.4887C17.1987 31.3282 17.5298 31.0565 17.7627 30.7078C17.9957 30.3592 18.12 29.9493 18.12 29.53C18.12 29.2516 18.0652 28.976 17.9586 28.7187C17.8521 28.4615 17.6959 28.2278 17.4991 28.031C17.3022 27.8341 17.0685 27.6779 16.8113 27.5714C16.5541 27.4649 16.2784 27.41 16 27.41Z" fill="white"/>
<path d="M26.91 31.65C28.0808 31.65 29.03 30.7009 29.03 29.53C29.03 28.3592 28.0808 27.41 26.91 27.41C25.7392 27.41 24.79 28.3592 24.79 29.53C24.79 30.7009 25.7392 31.65 26.91 31.65Z" fill="white"/>
<path d="M32.26 13.85C32.1022 13.6047 31.8534 13.4321 31.5683 13.3703C31.2833 13.3084 30.9853 13.3622 30.74 13.52L28.47 15C28.1073 14.6653 27.6335 14.4765 27.14 14.47H14.51C13.9955 14.47 13.502 14.6744 13.1382 15.0382C12.7744 15.402 12.57 15.8955 12.57 16.41V24.64C12.57 25.1545 12.7744 25.648 13.1382 26.0118C13.502 26.3756 13.9955 26.58 14.51 26.58H26.13C26.6053 26.5809 27.0644 26.4073 27.4202 26.092C27.776 25.7768 28.0036 25.342 28.06 24.87L29 17.26L31.94 15.37C32.1837 15.2106 32.3542 14.9611 32.4141 14.6761C32.4741 14.3912 32.4187 14.0941 32.26 13.85ZM25.91 24.36H14.77V16.65H26.85L25.91 24.36Z" fill="white"/>
</svg>
